<svg version="1.1" xmlns="http://www.w3.org/2000/svg" xmlns:xlink="http://www.w3.org/1999/xlink" width="1289" height="784"><defs/><g transform="scale(1,1)"><rect fill="rgb(255,255,255)" stroke="none" x="0" y="0" width="1289" height="784" fill-opacity="1"/><path fill="none" stroke="rgb(192,192,192)" paint-order="fill stroke markers" d=" M 90.5 0.5 L 90.5 784.5 M 138.5 0.5 L 138.5 784.5 M 187.5 0.5 L 187.5 784.5 M 236.5 0.5 L 236.5 784.5 M 284.5 0.5 L 284.5 784.5 M 333.5 0.5 L 333.5 784.5 M 381.5 0.5 L 381.5 784.5 M 430.5 0.5 L 430.5 784.5 M 479.5 0.5 L 479.5 784.5 M 527.5 0.5 L 527.5 784.5 M 576.5 0.5 L 576.5 784.5 M 625.5 0.5 L 625.5 784.5 M 673.5 0.5 L 673.5 784.5 M 722.5 0.5 L 722.5 784.5 M 770.5 0.5 L 770.5 784.5 M 819.5 0.5 L 819.5 784.5 M 868.5 0.5 L 868.5 784.5 M 916.5 0.5 L 916.5 784.5 M 965.5 0.5 L 965.5 784.5 M 1013.5 0.5 L 1013.5 784.5 M 1062.5 0.5 L 1062.5 784.5 M 1111.5 0.5 L 1111.5 784.5 M 1159.5 0.5 L 1159.5 784.5 M 1208.5 0.5 L 1208.5 784.5 M 1256.5 0.5 L 1256.5 784.5" stroke-opacity="1" stroke-linecap="round" stroke-linejoin="round" stroke-miterlimit="10"/><path fill="none" stroke="rgb(192,192,192)" paint-order="fill stroke markers" d=" M 2.5 0.5 L 2.5 784.5 M 12.5 0.5 L 12.5 784.5 M 22.5 0.5 L 22.5 784.5 M 31.5 0.5 L 31.5 784.5 M 51.5 0.5 L 51.5 784.5 M 61.5 0.5 L 61.5 784.5 M 70.5 0.5 L 70.5 784.5 M 80.5 0.5 L 80.5 784.5 M 100.5 0.5 L 100.5 784.5 M 109.5 0.5 L 109.5 784.5 M 119.5 0.5 L 119.5 784.5 M 129.5 0.5 L 129.5 784.5 M 148.5 0.5 L 148.5 784.5 M 158.5 0.5 L 158.5 784.5 M 168.5 0.5 L 168.5 784.5 M 177.5 0.5 L 177.5 784.5 M 197.5 0.5 L 197.5 784.5 M 206.5 0.5 L 206.5 784.5 M 216.5 0.5 L 216.5 784.5 M 226.5 0.5 L 226.5 784.5 M 245.5 0.5 L 245.5 784.5 M 255.5 0.5 L 255.5 784.5 M 265.5 0.5 L 265.5 784.5 M 275.5 0.5 L 275.5 784.5 M 294.5 0.5 L 294.5 784.5 M 304.5 0.5 L 304.5 784.5 M 313.5 0.5 L 313.5 784.5 M 323.5 0.5 L 323.5 784.5 M 343.5 0.5 L 343.5 784.5 M 352.5 0.5 L 352.5 784.5 M 362.5 0.5 L 362.5 784.5 M 372.5 0.5 L 372.5 784.5 M 391.5 0.5 L 391.5 784.5 M 401.5 0.5 L 401.5 784.5 M 411.5 0.5 L 411.5 784.5 M 420.5 0.5 L 420.5 784.5 M 440.5 0.5 L 440.5 784.5 M 450.5 0.5 L 450.5 784.5 M 459.5 0.5 L 459.5 784.5 M 469.5 0.5 L 469.5 784.5 M 488.5 0.5 L 488.5 784.5 M 498.5 0.5 L 498.5 784.5 M 508.5 0.5 L 508.5 784.5 M 518.5 0.5 L 518.5 784.5 M 537.5 0.5 L 537.5 784.5 M 547.5 0.5 L 547.5 784.5 M 556.5 0.5 L 556.5 784.5 M 566.5 0.5 L 566.5 784.5 M 586.5 0.5 L 586.5 784.5 M 595.5 0.5 L 595.5 784.5 M 605.5 0.5 L 605.5 784.5 M 615.5 0.5 L 615.5 784.5 M 634.5 0.5 L 634.5 784.5 M 644.5 0.5 L 644.5 784.5 M 654.5 0.5 L 654.5 784.5 M 663.5 0.5 L 663.5 784.5 M 683.5 0.5 L 683.5 784.5 M 693.5 0.5 L 693.5 784.5 M 702.5 0.5 L 702.5 784.5 M 712.5 0.5 L 712.5 784.5 M 731.5 0.5 L 731.5 784.5 M 741.5 0.5 L 741.5 784.5 M 751.5 0.5 L 751.5 784.5 M 761.5 0.5 L 761.5 784.5 M 780.5 0.5 L 780.5 784.5 M 790.5 0.5 L 790.5 784.5 M 800.5 0.5 L 800.5 784.5 M 809.5 0.5 L 809.5 784.5 M 829.5 0.5 L 829.5 784.5 M 838.5 0.5 L 838.5 784.5 M 848.5 0.5 L 848.5 784.5 M 858.5 0.5 L 858.5 784.5 M 877.5 0.5 L 877.5 784.5 M 887.5 0.5 L 887.5 784.5 M 897.5 0.5 L 897.5 784.5 M 906.5 0.5 L 906.5 784.5 M 926.5 0.5 L 926.5 784.5 M 936.5 0.5 L 936.5 784.5 M 945.5 0.5 L 945.5 784.5 M 955.5 0.5 L 955.5 784.5 M 975.5 0.5 L 975.5 784.5 M 984.5 0.5 L 984.5 784.5 M 994.5 0.5 L 994.5 784.5 M 1004.5 0.5 L 1004.5 784.5 M 1023.5 0.5 L 1023.5 784.5 M 1033.5 0.5 L 1033.5 784.5 M 1043.5 0.5 L 1043.5 784.5 M 1052.5 0.5 L 1052.5 784.5 M 1072.5 0.5 L 1072.5 784.5 M 1081.5 0.5 L 1081.5 784.5 M 1091.5 0.5 L 1091.5 784.5 M 1101.5 0.5 L 1101.5 784.5 M 1120.5 0.5 L 1120.5 784.5 M 1130.5 0.5 L 1130.5 784.5 M 1140.5 0.5 L 1140.5 784.5 M 1150.5 0.5 L 1150.5 784.5 M 1169.5 0.5 L 1169.5 784.5 M 1179.5 0.5 L 1179.5 784.5 M 1188.5 0.5 L 1188.5 784.5 M 1198.5 0.5 L 1198.5 784.5 M 1218.5 0.5 L 1218.5 784.5 M 1227.5 0.5 L 1227.5 784.5 M 1237.5 0.5 L 1237.5 784.5 M 1247.5 0.5 L 1247.5 784.5 M 1266.5 0.5 L 1266.5 784.5 M 1276.5 0.5 L 1276.5 784.5 M 1286.5 0.5 L 1286.5 784.5" stroke-opacity="0.23529411764705882" stroke-linecap="round" stroke-linejoin="round" stroke-miterlimit="10"/><path fill="none" stroke="rgb(192,192,192)" paint-order="fill stroke markers" d=" M 0.5 27.5 L 1289.5 27.5 M 0.5 27.5 L 1289.5 27.5 M 0.5 76.5 L 1289.5 76.5 M 0.5 125.5 L 1289.5 125.5 M 0.5 173.5 L 1289.5 173.5 M 0.5 222.5 L 1289.5 222.5 M 0.5 270.5 L 1289.5 270.5 M 0.5 319.5 L 1289.5 319.5 M 0.5 368.5 L 1289.5 368.5 M 0.5 416.5 L 1289.5 416.5 M 0.5 465.5 L 1289.5 465.5 M 0.5 514.5 L 1289.5 514.5 M 0.5 562.5 L 1289.5 562.5 M 0.5 611.5 L 1289.5 611.5 M 0.5 659.5 L 1289.5 659.5 M 0.5 708.5 L 1289.5 708.5" stroke-opacity="1" stroke-linecap="round" stroke-linejoin="round" stroke-miterlimit="10"/><path fill="none" stroke="rgb(192,192,192)" paint-order="fill stroke markers" d=" M 0.5 8.5 L 1289.5 8.5 M 0.5 8.5 L 1289.5 8.5 M 0.5 18.5 L 1289.5 18.5 M 0.5 37.5 L 1289.5 37.5 M 0.5 47.5 L 1289.5 47.5 M 0.5 57.5 L 1289.5 57.5 M 0.5 66.5 L 1289.5 66.5 M 0.5 86.5 L 1289.5 86.5 M 0.5 95.5 L 1289.5 95.5 M 0.5 105.5 L 1289.5 105.5 M 0.5 115.5 L 1289.5 115.5 M 0.5 134.5 L 1289.5 134.5 M 0.5 144.5 L 1289.5 144.5 M 0.5 154.5 L 1289.5 154.5 M 0.5 164.5 L 1289.5 164.5 M 0.5 183.5 L 1289.5 183.5 M 0.5 193.5 L 1289.5 193.5 M 0.5 202.5 L 1289.5 202.5 M 0.5 212.5 L 1289.5 212.5 M 0.5 232.5 L 1289.5 232.5 M 0.5 241.5 L 1289.5 241.5 M 0.5 251.5 L 1289.5 251.5 M 0.5 261.5 L 1289.5 261.5 M 0.5 280.5 L 1289.5 280.5 M 0.5 290.5 L 1289.5 290.5 M 0.5 300.5 L 1289.5 300.5 M 0.5 309.5 L 1289.5 309.5 M 0.5 329.5 L 1289.5 329.5 M 0.5 339.5 L 1289.5 339.5 M 0.5 348.5 L 1289.5 348.5 M 0.5 358.5 L 1289.5 358.5 M 0.5 377.5 L 1289.5 377.5 M 0.5 387.5 L 1289.5 387.5 M 0.5 397.5 L 1289.5 397.5 M 0.5 407.5 L 1289.5 407.5 M 0.5 426.5 L 1289.5 426.5 M 0.5 436.5 L 1289.5 436.5 M 0.5 445.5 L 1289.5 445.5 M 0.5 455.5 L 1289.5 455.5 M 0.5 475.5 L 1289.5 475.5 M 0.5 484.5 L 1289.5 484.5 M 0.5 494.5 L 1289.5 494.5 M 0.5 504.5 L 1289.5 504.5 M 0.5 523.5 L 1289.5 523.5 M 0.5 533.5 L 1289.5 533.5 M 0.5 543.5 L 1289.5 543.5 M 0.5 552.5 L 1289.5 552.5 M 0.5 572.5 L 1289.5 572.5 M 0.5 582.5 L 1289.5 582.5 M 0.5 591.5 L 1289.5 591.5 M 0.5 601.5 L 1289.5 601.5 M 0.5 620.5 L 1289.5 620.5 M 0.5 630.5 L 1289.5 630.5 M 0.5 640.5 L 1289.5 640.5 M 0.5 650.5 L 1289.5 650.5 M 0.5 669.5 L 1289.5 669.5 M 0.5 679.5 L 1289.5 679.5 M 0.5 689.5 L 1289.5 689.5 M 0.5 698.5 L 1289.5 698.5 M 0.5 718.5 L 1289.5 718.5 M 0.5 727.5 L 1289.5 727.5 M 0.5 737.5 L 1289.5 737.5 M 0.5 747.5 L 1289.5 747.5 M 0.5 766.5 L 1289.5 766.5 M 0.5 776.5 L 1289.5 776.5" stroke-opacity="0.23529411764705882" stroke-linecap="round" stroke-linejoin="round" stroke-miterlimit="10"/><path fill="none" stroke="rgb(0,0,0)" paint-order="fill stroke markers" d=" M 41.5 2.5 L 41.5 784.5" stroke-opacity="1" stroke-miterlimit="10"/><path fill="none" stroke="rgb(0,0,0)" paint-order="fill stroke markers" d=" M 41.5 1.5 L 37.5 5.5" stroke-opacity="1" stroke-miterlimit="10"/><path fill="none" stroke="rgb(0,0,0)" paint-order="fill stroke markers" d=" M 41.5 1.5 L 45.5 5.5" stroke-opacity="1" stroke-miterlimit="10"/><path fill="none" stroke="rgb(0,0,0)" paint-order="fill stroke markers" d=" M 0.5 757.5 L 1287.5 757.5" stroke-opacity="1" stroke-miterlimit="10"/><path fill="none" stroke="rgb(0,0,0)" paint-order="fill stroke markers" d=" M 1288.5 757.5 L 1284.5 753.5" stroke-opacity="1" stroke-miterlimit="10"/><path fill="none" stroke="rgb(0,0,0)" paint-order="fill stroke markers" d=" M 1288.5 757.5 L 1284.5 761.5" stroke-opacity="1" stroke-miterlimit="10"/><text fill="none" stroke="rgb(255,255,255)" font-family="geogebra-sans-serif, sans-serif" font-size="12px" font-style="normal" font-weight="normal" text-decoration="normal" x="82" y="773" text-anchor="start" dominant-baseline="alphabetic" stroke-opacity="1" stroke-miterlimit="10" stroke-width="4">0.2</text><text fill="rgb(0,0,0)" stroke="none" font-family="geogebra-sans-serif, sans-serif" font-size="12px" font-style="normal" font-weight="normal" text-decoration="normal" x="82" y="773" text-anchor="start" dominant-baseline="alphabetic" fill-opacity="1">0.2</text><text fill="none" stroke="rgb(255,255,255)" font-family="geogebra-sans-serif, sans-serif" font-size="12px" font-style="normal" font-weight="normal" text-decoration="normal" x="130" y="773" text-anchor="start" dominant-baseline="alphabetic" stroke-opacity="1" stroke-miterlimit="10" stroke-width="4">0.4</text><text fill="rgb(0,0,0)" stroke="none" font-family="geogebra-sans-serif, sans-serif" font-size="12px" font-style="normal" font-weight="normal" text-decoration="normal" x="130" y="773" text-anchor="start" dominant-baseline="alphabetic" fill-opacity="1">0.4</text><text fill="none" stroke="rgb(255,255,255)" font-family="geogebra-sans-serif, sans-serif" font-size="12px" font-style="normal" font-weight="normal" text-decoration="normal" x="179" y="773" text-anchor="start" dominant-baseline="alphabetic" stroke-opacity="1" stroke-miterlimit="10" stroke-width="4">0.6</text><text fill="rgb(0,0,0)" stroke="none" font-family="geogebra-sans-serif, sans-serif" font-size="12px" font-style="normal" font-weight="normal" text-decoration="normal" x="179" y="773" text-anchor="start" dominant-baseline="alphabetic" fill-opacity="1">0.6</text><text fill="none" stroke="rgb(255,255,255)" font-family="geogebra-sans-serif, sans-serif" font-size="12px" font-style="normal" font-weight="normal" text-decoration="normal" x="228" y="773" text-anchor="start" dominant-baseline="alphabetic" stroke-opacity="1" stroke-miterlimit="10" stroke-width="4">0.8</text><text fill="rgb(0,0,0)" stroke="none" font-family="geogebra-sans-serif, sans-serif" font-size="12px" font-style="normal" font-weight="normal" text-decoration="normal" x="228" y="773" text-anchor="start" dominant-baseline="alphabetic" fill-opacity="1">0.8</text><text fill="none" stroke="rgb(255,255,255)" font-family="geogebra-sans-serif, sans-serif" font-size="12px" font-style="normal" font-weight="normal" text-decoration="normal" x="282" y="773" text-anchor="start" dominant-baseline="alphabetic" stroke-opacity="1" stroke-miterlimit="10" stroke-width="4">1</text><text fill="rgb(0,0,0)" stroke="none" font-family="geogebra-sans-serif, sans-serif" font-size="12px" font-style="normal" font-weight="normal" text-decoration="normal" x="282" y="773" text-anchor="start" dominant-baseline="alphabetic" fill-opacity="1">1</text><text fill="none" stroke="rgb(255,255,255)" font-family="geogebra-sans-serif, sans-serif" font-size="12px" font-style="normal" font-weight="normal" text-decoration="normal" x="325" y="773" text-anchor="start" dominant-baseline="alphabetic" stroke-opacity="1" stroke-miterlimit="10" stroke-width="4">1.2</text><text fill="rgb(0,0,0)" stroke="none" font-family="geogebra-sans-serif, sans-serif" font-size="12px" font-style="normal" font-weight="normal" text-decoration="normal" x="325" y="773" text-anchor="start" dominant-baseline="alphabetic" fill-opacity="1">1.2</text><text fill="none" stroke="rgb(255,255,255)" font-family="geogebra-sans-serif, sans-serif" font-size="12px" font-style="normal" font-weight="normal" text-decoration="normal" x="373" y="773" text-anchor="start" dominant-baseline="alphabetic" stroke-opacity="1" stroke-miterlimit="10" stroke-width="4">1.4</text><text fill="rgb(0,0,0)" stroke="none" font-family="geogebra-sans-serif, sans-serif" font-size="12px" font-style="normal" font-weight="normal" text-decoration="normal" x="373" y="773" text-anchor="start" dominant-baseline="alphabetic" fill-opacity="1">1.4</text><text fill="none" stroke="rgb(255,255,255)" font-family="geogebra-sans-serif, sans-serif" font-size="12px" font-style="normal" font-weight="normal" text-decoration="normal" x="422" y="773" text-anchor="start" dominant-baseline="alphabetic" stroke-opacity="1" stroke-miterlimit="10" stroke-width="4">1.6</text><text fill="rgb(0,0,0)" stroke="none" font-family="geogebra-sans-serif, sans-serif" font-size="12px" font-style="normal" font-weight="normal" text-decoration="normal" x="422" y="773" text-anchor="start" dominant-baseline="alphabetic" fill-opacity="1">1.6</text><text fill="none" stroke="rgb(255,255,255)" font-family="geogebra-sans-serif, sans-serif" font-size="12px" font-style="normal" font-weight="normal" text-decoration="normal" x="471" y="773" text-anchor="start" dominant-baseline="alphabetic" stroke-opacity="1" stroke-miterlimit="10" stroke-width="4">1.8</text><text fill="rgb(0,0,0)" stroke="none" font-family="geogebra-sans-serif, sans-serif" font-size="12px" font-style="normal" font-weight="normal" text-decoration="normal" x="471" y="773" text-anchor="start" dominant-baseline="alphabetic" fill-opacity="1">1.8</text><text fill="none" stroke="rgb(255,255,255)" font-family="geogebra-sans-serif, sans-serif" font-size="12px" font-style="normal" font-weight="normal" text-decoration="normal" x="525" y="773" text-anchor="start" dominant-baseline="alphabetic" stroke-opacity="1" stroke-miterlimit="10" stroke-width="4">2</text><text fill="rgb(0,0,0)" stroke="none" font-family="geogebra-sans-serif, sans-serif" font-size="12px" font-style="normal" font-weight="normal" text-decoration="normal" x="525" y="773" text-anchor="start" dominant-baseline="alphabetic" fill-opacity="1">2</text><text fill="none" stroke="rgb(255,255,255)" font-family="geogebra-sans-serif, sans-serif" font-size="12px" font-style="normal" font-weight="normal" text-decoration="normal" x="568" y="773" text-anchor="start" dominant-baseline="alphabetic" stroke-opacity="1" stroke-miterlimit="10" stroke-width="4">2.2</text><text fill="rgb(0,0,0)" stroke="none" font-family="geogebra-sans-serif, sans-serif" font-size="12px" font-style="normal" font-weight="normal" text-decoration="normal" x="568" y="773" text-anchor="start" dominant-baseline="alphabetic" fill-opacity="1">2.2</text><text fill="none" stroke="rgb(255,255,255)" font-family="geogebra-sans-serif, sans-serif" font-size="12px" font-style="normal" font-weight="normal" text-decoration="normal" x="617" y="773" text-anchor="start" dominant-baseline="alphabetic" stroke-opacity="1" stroke-miterlimit="10" stroke-width="4">2.4</text><text fill="rgb(0,0,0)" stroke="none" font-family="geogebra-sans-serif, sans-serif" font-size="12px" font-style="normal" font-weight="normal" text-decoration="normal" x="617" y="773" text-anchor="start" dominant-baseline="alphabetic" fill-opacity="1">2.4</text><text fill="none" stroke="rgb(255,255,255)" font-family="geogebra-sans-serif, sans-serif" font-size="12px" font-style="normal" font-weight="normal" text-decoration="normal" x="665" y="773" text-anchor="start" dominant-baseline="alphabetic" stroke-opacity="1" stroke-miterlimit="10" stroke-width="4">2.6</text><text fill="rgb(0,0,0)" stroke="none" font-family="geogebra-sans-serif, sans-serif" font-size="12px" font-style="normal" font-weight="normal" text-decoration="normal" x="665" y="773" text-anchor="start" dominant-baseline="alphabetic" fill-opacity="1">2.6</text><text fill="none" stroke="rgb(255,255,255)" font-family="geogebra-sans-serif, sans-serif" font-size="12px" font-style="normal" font-weight="normal" text-decoration="normal" x="714" y="773" text-anchor="start" dominant-baseline="alphabetic" stroke-opacity="1" stroke-miterlimit="10" stroke-width="4">2.8</text><text fill="rgb(0,0,0)" stroke="none" font-family="geogebra-sans-serif, sans-serif" font-size="12px" font-style="normal" font-weight="normal" text-decoration="normal" x="714" y="773" text-anchor="start" dominant-baseline="alphabetic" fill-opacity="1">2.8</text><text fill="none" stroke="rgb(255,255,255)" font-family="geogebra-sans-serif, sans-serif" font-size="12px" font-style="normal" font-weight="normal" text-decoration="normal" x="768" y="773" text-anchor="start" dominant-baseline="alphabetic" stroke-opacity="1" stroke-miterlimit="10" stroke-width="4">3</text><text fill="rgb(0,0,0)" stroke="none" font-family="geogebra-sans-serif, sans-serif" font-size="12px" font-style="normal" font-weight="normal" text-decoration="normal" x="768" y="773" text-anchor="start" dominant-baseline="alphabetic" fill-opacity="1">3</text><text fill="none" stroke="rgb(255,255,255)" font-family="geogebra-sans-serif, sans-serif" font-size="12px" font-style="normal" font-weight="normal" text-decoration="normal" x="811" y="773" text-anchor="start" dominant-baseline="alphabetic" stroke-opacity="1" stroke-miterlimit="10" stroke-width="4">3.2</text><text fill="rgb(0,0,0)" stroke="none" font-family="geogebra-sans-serif, sans-serif" font-size="12px" font-style="normal" font-weight="normal" text-decoration="normal" x="811" y="773" text-anchor="start" dominant-baseline="alphabetic" fill-opacity="1">3.2</text><text fill="none" stroke="rgb(255,255,255)" font-family="geogebra-sans-serif, sans-serif" font-size="12px" font-style="normal" font-weight="normal" text-decoration="normal" x="860" y="773" text-anchor="start" dominant-baseline="alphabetic" stroke-opacity="1" stroke-miterlimit="10" stroke-width="4">3.4</text><text fill="rgb(0,0,0)" stroke="none" font-family="geogebra-sans-serif, sans-serif" font-size="12px" font-style="normal" font-weight="normal" text-decoration="normal" x="860" y="773" text-anchor="start" dominant-baseline="alphabetic" fill-opacity="1">3.4</text><text fill="none" stroke="rgb(255,255,255)" font-family="geogebra-sans-serif, sans-serif" font-size="12px" font-style="normal" font-weight="normal" text-decoration="normal" x="908" y="773" text-anchor="start" dominant-baseline="alphabetic" stroke-opacity="1" stroke-miterlimit="10" stroke-width="4">3.6</text><text fill="rgb(0,0,0)" stroke="none" font-family="geogebra-sans-serif, sans-serif" font-size="12px" font-style="normal" font-weight="normal" text-decoration="normal" x="908" y="773" text-anchor="start" dominant-baseline="alphabetic" fill-opacity="1">3.6</text><text fill="none" stroke="rgb(255,255,255)" font-family="geogebra-sans-serif, sans-serif" font-size="12px" font-style="normal" font-weight="normal" text-decoration="normal" x="957" y="773" text-anchor="start" dominant-baseline="alphabetic" stroke-opacity="1" stroke-miterlimit="10" stroke-width="4">3.8</text><text fill="rgb(0,0,0)" stroke="none" font-family="geogebra-sans-serif, sans-serif" font-size="12px" font-style="normal" font-weight="normal" text-decoration="normal" x="957" y="773" text-anchor="start" dominant-baseline="alphabetic" fill-opacity="1">3.8</text><text fill="none" stroke="rgb(255,255,255)" font-family="geogebra-sans-serif, sans-serif" font-size="12px" font-style="normal" font-weight="normal" text-decoration="normal" x="1011" y="773" text-anchor="start" dominant-baseline="alphabetic" stroke-opacity="1" stroke-miterlimit="10" stroke-width="4">4</text><text fill="rgb(0,0,0)" stroke="none" font-family="geogebra-sans-serif, sans-serif" font-size="12px" font-style="normal" font-weight="normal" text-decoration="normal" x="1011" y="773" text-anchor="start" dominant-baseline="alphabetic" fill-opacity="1">4</text><text fill="none" stroke="rgb(255,255,255)" font-family="geogebra-sans-serif, sans-serif" font-size="12px" font-style="normal" font-weight="normal" text-decoration="normal" x="1054" y="773" text-anchor="start" dominant-baseline="alphabetic" stroke-opacity="1" stroke-miterlimit="10" stroke-width="4">4.2</text><text fill="rgb(0,0,0)" stroke="none" font-family="geogebra-sans-serif, sans-serif" font-size="12px" font-style="normal" font-weight="normal" text-decoration="normal" x="1054" y="773" text-anchor="start" dominant-baseline="alphabetic" fill-opacity="1">4.2</text><text fill="none" stroke="rgb(255,255,255)" font-family="geogebra-sans-serif, sans-serif" font-size="12px" font-style="normal" font-weight="normal" text-decoration="normal" x="1103" y="773" text-anchor="start" dominant-baseline="alphabetic" stroke-opacity="1" stroke-miterlimit="10" stroke-width="4">4.4</text><text fill="rgb(0,0,0)" stroke="none" font-family="geogebra-sans-serif, sans-serif" font-size="12px" font-style="normal" font-weight="normal" text-decoration="normal" x="1103" y="773" text-anchor="start" dominant-baseline="alphabetic" fill-opacity="1">4.4</text><text fill="none" stroke="rgb(255,255,255)" font-family="geogebra-sans-serif, sans-serif" font-size="12px" font-style="normal" font-weight="normal" text-decoration="normal" x="1151" y="773" text-anchor="start" dominant-baseline="alphabetic" stroke-opacity="1" stroke-miterlimit="10" stroke-width="4">4.6</text><text fill="rgb(0,0,0)" stroke="none" font-family="geogebra-sans-serif, sans-serif" font-size="12px" font-style="normal" font-weight="normal" text-decoration="normal" x="1151" y="773" text-anchor="start" dominant-baseline="alphabetic" fill-opacity="1">4.6</text><text fill="none" stroke="rgb(255,255,255)" font-family="geogebra-sans-serif, sans-serif" font-size="12px" font-style="normal" font-weight="normal" text-decoration="normal" x="1200" y="773" text-anchor="start" dominant-baseline="alphabetic" stroke-opacity="1" stroke-miterlimit="10" stroke-width="4">4.8</text><text fill="rgb(0,0,0)" stroke="none" font-family="geogebra-sans-serif, sans-serif" font-size="12px" font-style="normal" font-weight="normal" text-decoration="normal" x="1200" y="773" text-anchor="start" dominant-baseline="alphabetic" fill-opacity="1">4.8</text><text fill="none" stroke="rgb(255,255,255)" font-family="geogebra-sans-serif, sans-serif" font-size="12px" font-style="normal" font-weight="normal" text-decoration="normal" x="1254" y="773" text-anchor="start" dominant-baseline="alphabetic" stroke-opacity="1" stroke-miterlimit="10" stroke-width="4">5</text><text fill="rgb(0,0,0)" stroke="none" font-family="geogebra-sans-serif, sans-serif" font-size="12px" font-style="normal" font-weight="normal" text-decoration="normal" x="1254" y="773" text-anchor="start" dominant-baseline="alphabetic" fill-opacity="1">5</text><text fill="none" stroke="rgb(255,255,255)" font-family="geogebra-sans-serif, sans-serif" font-size="12px" font-style="normal" font-weight="normal" text-decoration="normal" x="18" y="713" text-anchor="start" dominant-baseline="alphabetic" stroke-opacity="1" stroke-miterlimit="10" stroke-width="4">0.2</text><text fill="rgb(0,0,0)" stroke="none" font-family="geogebra-sans-serif, sans-serif" font-size="12px" font-style="normal" font-weight="normal" text-decoration="normal" x="18" y="713" text-anchor="start" dominant-baseline="alphabetic" fill-opacity="1">0.2</text><text fill="none" stroke="rgb(255,255,255)" font-family="geogebra-sans-serif, sans-serif" font-size="12px" font-style="normal" font-weight="normal" text-decoration="normal" x="18" y="664" text-anchor="start" dominant-baseline="alphabetic" stroke-opacity="1" stroke-miterlimit="10" stroke-width="4">0.4</text><text fill="rgb(0,0,0)" stroke="none" font-family="geogebra-sans-serif, sans-serif" font-size="12px" font-style="normal" font-weight="normal" text-decoration="normal" x="18" y="664" text-anchor="start" dominant-baseline="alphabetic" fill-opacity="1">0.4</text><text fill="none" stroke="rgb(255,255,255)" font-family="geogebra-sans-serif, sans-serif" font-size="12px" font-style="normal" font-weight="normal" text-decoration="normal" x="18" y="616" text-anchor="start" dominant-baseline="alphabetic" stroke-opacity="1" stroke-miterlimit="10" stroke-width="4">0.6</text><text fill="rgb(0,0,0)" stroke="none" font-family="geogebra-sans-serif, sans-serif" font-size="12px" font-style="normal" font-weight="normal" text-decoration="normal" x="18" y="616" text-anchor="start" dominant-baseline="alphabetic" fill-opacity="1">0.6</text><text fill="none" stroke="rgb(255,255,255)" font-family="geogebra-sans-serif, sans-serif" font-size="12px" font-style="normal" font-weight="normal" text-decoration="normal" x="18" y="567" text-anchor="start" dominant-baseline="alphabetic" stroke-opacity="1" stroke-miterlimit="10" stroke-width="4">0.8</text><text fill="rgb(0,0,0)" stroke="none" font-family="geogebra-sans-serif, sans-serif" font-size="12px" font-style="normal" font-weight="normal" text-decoration="normal" x="18" y="567" text-anchor="start" dominant-baseline="alphabetic" fill-opacity="1">0.8</text><text fill="none" stroke="rgb(255,255,255)" font-family="geogebra-sans-serif, sans-serif" font-size="12px" font-style="normal" font-weight="normal" text-decoration="normal" x="28" y="519" text-anchor="start" dominant-baseline="alphabetic" stroke-opacity="1" stroke-miterlimit="10" stroke-width="4">1</text><text fill="rgb(0,0,0)" stroke="none" font-family="geogebra-sans-serif, sans-serif" font-size="12px" font-style="normal" font-weight="normal" text-decoration="normal" x="28" y="519" text-anchor="start" dominant-baseline="alphabetic" fill-opacity="1">1</text><text fill="none" stroke="rgb(255,255,255)" font-family="geogebra-sans-serif, sans-serif" font-size="12px" font-style="normal" font-weight="normal" text-decoration="normal" x="18" y="470" text-anchor="start" dominant-baseline="alphabetic" stroke-opacity="1" stroke-miterlimit="10" stroke-width="4">1.2</text><text fill="rgb(0,0,0)" stroke="none" font-family="geogebra-sans-serif, sans-serif" font-size="12px" font-style="normal" font-weight="normal" text-decoration="normal" x="18" y="470" text-anchor="start" dominant-baseline="alphabetic" fill-opacity="1">1.2</text><text fill="none" stroke="rgb(255,255,255)" font-family="geogebra-sans-serif, sans-serif" font-size="12px" font-style="normal" font-weight="normal" text-decoration="normal" x="18" y="421" text-anchor="start" dominant-baseline="alphabetic" stroke-opacity="1" stroke-miterlimit="10" stroke-width="4">1.4</text><text fill="rgb(0,0,0)" stroke="none" font-family="geogebra-sans-serif, sans-serif" font-size="12px" font-style="normal" font-weight="normal" text-decoration="normal" x="18" y="421" text-anchor="start" dominant-baseline="alphabetic" fill-opacity="1">1.4</text><text fill="none" stroke="rgb(255,255,255)" font-family="geogebra-sans-serif, sans-serif" font-size="12px" font-style="normal" font-weight="normal" text-decoration="normal" x="18" y="373" text-anchor="start" dominant-baseline="alphabetic" stroke-opacity="1" stroke-miterlimit="10" stroke-width="4">1.6</text><text fill="rgb(0,0,0)" stroke="none" font-family="geogebra-sans-serif, sans-serif" font-size="12px" font-style="normal" font-weight="normal" text-decoration="normal" x="18" y="373" text-anchor="start" dominant-baseline="alphabetic" fill-opacity="1">1.6</text><text fill="none" stroke="rgb(255,255,255)" font-family="geogebra-sans-serif, sans-serif" font-size="12px" font-style="normal" font-weight="normal" text-decoration="normal" x="18" y="324" text-anchor="start" dominant-baseline="alphabetic" stroke-opacity="1" stroke-miterlimit="10" stroke-width="4">1.8</text><text fill="rgb(0,0,0)" stroke="none" font-family="geogebra-sans-serif, sans-serif" font-size="12px" font-style="normal" font-weight="normal" text-decoration="normal" x="18" y="324" text-anchor="start" dominant-baseline="alphabetic" fill-opacity="1">1.8</text><text fill="none" stroke="rgb(255,255,255)" font-family="geogebra-sans-serif, sans-serif" font-size="12px" font-style="normal" font-weight="normal" text-decoration="normal" x="28" y="275" text-anchor="start" dominant-baseline="alphabetic" stroke-opacity="1" stroke-miterlimit="10" stroke-width="4">2</text><text fill="rgb(0,0,0)" stroke="none" font-family="geogebra-sans-serif, sans-serif" font-size="12px" font-style="normal" font-weight="normal" text-decoration="normal" x="28" y="275" text-anchor="start" dominant-baseline="alphabetic" fill-opacity="1">2</text><text fill="none" stroke="rgb(255,255,255)" font-family="geogebra-sans-serif, sans-serif" font-size="12px" font-style="normal" font-weight="normal" text-decoration="normal" x="18" y="227" text-anchor="start" dominant-baseline="alphabetic" stroke-opacity="1" stroke-miterlimit="10" stroke-width="4">2.2</text><text fill="rgb(0,0,0)" stroke="none" font-family="geogebra-sans-serif, sans-serif" font-size="12px" font-style="normal" font-weight="normal" text-decoration="normal" x="18" y="227" text-anchor="start" dominant-baseline="alphabetic" fill-opacity="1">2.2</text><text fill="none" stroke="rgb(255,255,255)" font-family="geogebra-sans-serif, sans-serif" font-size="12px" font-style="normal" font-weight="normal" text-decoration="normal" x="18" y="178" text-anchor="start" dominant-baseline="alphabetic" stroke-opacity="1" stroke-miterlimit="10" stroke-width="4">2.4</text><text fill="rgb(0,0,0)" stroke="none" font-family="geogebra-sans-serif, sans-serif" font-size="12px" font-style="normal" font-weight="normal" text-decoration="normal" x="18" y="178" text-anchor="start" dominant-baseline="alphabetic" fill-opacity="1">2.4</text><text fill="none" stroke="rgb(255,255,255)" font-family="geogebra-sans-serif, sans-serif" font-size="12px" font-style="normal" font-weight="normal" text-decoration="normal" x="18" y="130" text-anchor="start" dominant-baseline="alphabetic" stroke-opacity="1" stroke-miterlimit="10" stroke-width="4">2.6</text><text fill="rgb(0,0,0)" stroke="none" font-family="geogebra-sans-serif, sans-serif" font-size="12px" font-style="normal" font-weight="normal" text-decoration="normal" x="18" y="130" text-anchor="start" dominant-baseline="alphabetic" fill-opacity="1">2.6</text><text fill="none" stroke="rgb(255,255,255)" font-family="geogebra-sans-serif, sans-serif" font-size="12px" font-style="normal" font-weight="normal" text-decoration="normal" x="18" y="81" text-anchor="start" dominant-baseline="alphabetic" stroke-opacity="1" stroke-miterlimit="10" stroke-width="4">2.8</text><text fill="rgb(0,0,0)" stroke="none" font-family="geogebra-sans-serif, sans-serif" font-size="12px" font-style="normal" font-weight="normal" text-decoration="normal" x="18" y="81" text-anchor="start" dominant-baseline="alphabetic" fill-opacity="1">2.8</text><text fill="none" stroke="rgb(255,255,255)" font-family="geogebra-sans-serif, sans-serif" font-size="12px" font-style="normal" font-weight="normal" text-decoration="normal" x="28" y="32" text-anchor="start" dominant-baseline="alphabetic" stroke-opacity="1" stroke-miterlimit="10" stroke-width="4">3</text><text fill="rgb(0,0,0)" stroke="none" font-family="geogebra-sans-serif, sans-serif" font-size="12px" font-style="normal" font-weight="normal" text-decoration="normal" x="28" y="32" text-anchor="start" dominant-baseline="alphabetic" fill-opacity="1">3</text><text fill="none" stroke="rgb(255,255,255)" font-family="geogebra-sans-serif, sans-serif" font-size="12px" font-style="normal" font-weight="normal" text-decoration="normal" x="28" y="773" text-anchor="start" dominant-baseline="alphabetic" stroke-opacity="1" stroke-miterlimit="10" stroke-width="4">0</text><text fill="rgb(0,0,0)" stroke="none" font-family="geogebra-sans-serif, sans-serif" font-size="12px" font-style="normal" font-weight="normal" text-decoration="normal" x="28" y="773" text-anchor="start" dominant-baseline="alphabetic" fill-opacity="1">0</text><path fill="none" stroke="rgb(0,0,0)" paint-order="fill stroke markers" d=" M -5 337.7422700433139 L 493.37582561917475 789" stroke-opacity="0.6980392156862745" stroke-linecap="round" stroke-linejoin="round" stroke-miterlimit="10" stroke-width="2.5"/><text fill="rgb(0,0,0)" stroke="none" font-family="geogebra-sans-serif, sans-serif" font-size="16px" font-style="normal" font-weight="normal" text-decoration="normal" x="5" y="367" text-anchor="start" dominant-baseline="alphabetic" fill-opacity="1">f</text><path fill="rgb(77,77,255)" stroke="none" paint-order="stroke fill markers" d=" M 66.1604305114971 392.4956879052472 C 66.1604305114971 395.25711165440117 63.92185426065106 397.4956879052472 61.1604305114971 397.4956879052472 C 58.39900676234313 397.4956879052472 56.1604305114971 395.25711165440117 56.1604305114971 392.4956879052472 C 56.1604305114971 389.7342641560933 58.39900676234313 387.4956879052472 61.1604305114971 387.4956879052472 C 63.92185426065106 387.4956879052472 66.1604305114971 389.7342641560933 66.1604305114971 392.4956879052472 Z" fill-opacity="1"/><path fill="none" stroke="rgb(0,0,0)" paint-order="fill stroke markers" d=" M 66.1604305114971 392.4956879052472 C 66.1604305114971 395.25711165440117 63.92185426065106 397.4956879052472 61.1604305114971 397.4956879052472 C 58.39900676234313 397.4956879052472 56.1604305114971 395.25711165440117 56.1604305114971 392.4956879052472 C 56.1604305114971 389.7342641560933 58.39900676234313 387.4956879052472 61.1604305114971 387.4956879052472 C 63.92185426065106 387.4956879052472 66.1604305114971 389.7342641560933 66.1604305114971 392.4956879052472 Z" stroke-opacity="1" stroke-linecap="round" stroke-linejoin="round" stroke-miterlimit="10"/><text fill="rgb(77,77,255)" stroke="none" font-family="geogebra-sans-serif, sans-serif" font-size="16px" font-style="normal" font-weight="normal" text-decoration="normal" x="65" y="382" text-anchor="start" dominant-baseline="alphabetic" fill-opacity="1">A</text><path fill="rgb(77,77,255)" stroke="none" paint-order="stroke fill markers" d=" M 71.02148338611633 397.35674077986647 C 71.02148338611633 400.1181645290204 68.78290713527029 402.35674077986647 66.02148338611633 402.35674077986647 C 63.26005963696236 402.35674077986647 61.02148338611633 400.1181645290204 61.02148338611633 397.35674077986647 C 61.02148338611633 394.5953170307125 63.26005963696236 392.35674077986647 66.02148338611633 392.35674077986647 C 68.78290713527029 392.35674077986647 71.02148338611633 394.5953170307125 71.02148338611633 397.35674077986647 Z" fill-opacity="1"/><path fill="none" stroke="rgb(0,0,0)" paint-order="fill stroke markers" d=" M 71.02148338611633 397.35674077986647 C 71.02148338611633 400.1181645290204 68.78290713527029 402.35674077986647 66.02148338611633 402.35674077986647 C 63.26005963696236 402.35674077986647 61.02148338611633 400.1181645290204 61.02148338611633 397.35674077986647 C 61.02148338611633 394.5953170307125 63.26005963696236 392.35674077986647 66.02148338611633 392.35674077986647 C 68.78290713527029 392.35674077986647 71.02148338611633 394.5953170307125 71.02148338611633 397.35674077986647 Z" stroke-opacity="1" stroke-linecap="round" stroke-linejoin="round" stroke-miterlimit="10"/><text fill="rgb(77,77,255)" stroke="none" font-family="geogebra-sans-serif, sans-serif" font-size="16px" font-style="normal" font-weight="normal" text-decoration="normal" x="70" y="387" text-anchor="start" dominant-baseline="alphabetic" fill-opacity="1">B</text><path fill="rgb(77,77,255)" stroke="none" paint-order="stroke fill markers" d=" M 80.74358913535482 416.8009522783435 C 80.74358913535482 419.56237602749746 78.50501288450879 421.8009522783435 75.74358913535482 421.8009522783435 C 72.98216538620086 421.8009522783435 70.74358913535482 419.56237602749746 70.74358913535482 416.8009522783435 C 70.74358913535482 414.03952852918957 72.98216538620086 411.8009522783435 75.74358913535482 411.8009522783435 C 78.50501288450879 411.8009522783435 80.74358913535482 414.03952852918957 80.74358913535482 416.8009522783435 Z" fill-opacity="1"/><path fill="none" stroke="rgb(0,0,0)" paint-order="fill stroke markers" d=" M 80.74358913535482 416.8009522783435 C 80.74358913535482 419.56237602749746 78.50501288450879 421.8009522783435 75.74358913535482 421.8009522783435 C 72.98216538620086 421.8009522783435 70.74358913535482 419.56237602749746 70.74358913535482 416.8009522783435 C 70.74358913535482 414.03952852918957 72.98216538620086 411.8009522783435 75.74358913535482 411.8009522783435 C 78.50501288450879 411.8009522783435 80.74358913535482 414.03952852918957 80.74358913535482 416.8009522783435 Z" stroke-opacity="1" stroke-linecap="round" stroke-linejoin="round" stroke-miterlimit="10"/><text fill="rgb(77,77,255)" stroke="none" font-family="geogebra-sans-serif, sans-serif" font-size="16px" font-style="normal" font-weight="normal" text-decoration="normal" x="80" y="407" text-anchor="start" dominant-baseline="alphabetic" fill-opacity="1">C</text><path fill="rgb(77,77,255)" stroke="none" paint-order="stroke fill markers" d=" M 85.60464200997404 419.2314787156531 C 85.60464200997404 421.99290246480706 83.366065759128 424.2314787156531 80.60464200997404 424.2314787156531 C 77.84321826082008 424.2314787156531 75.60464200997404 421.99290246480706 75.60464200997404 419.2314787156531 C 75.60464200997404 416.47005496649916 77.84321826082008 414.2314787156531 80.60464200997404 414.2314787156531 C 83.366065759128 414.2314787156531 85.60464200997404 416.47005496649916 85.60464200997404 419.2314787156531 Z" fill-opacity="1"/><path fill="none" stroke="rgb(0,0,0)" paint-order="fill stroke markers" d=" M 85.60464200997404 419.2314787156531 C 85.60464200997404 421.99290246480706 83.366065759128 424.2314787156531 80.60464200997404 424.2314787156531 C 77.84321826082008 424.2314787156531 75.60464200997404 421.99290246480706 75.60464200997404 419.2314787156531 C 75.60464200997404 416.47005496649916 77.84321826082008 414.2314787156531 80.60464200997404 414.2314787156531 C 83.366065759128 414.2314787156531 85.60464200997404 416.47005496649916 85.60464200997404 419.2314787156531 Z" stroke-opacity="1" stroke-linecap="round" stroke-linejoin="round" stroke-miterlimit="10"/><text fill="rgb(77,77,255)" stroke="none" font-family="geogebra-sans-serif, sans-serif" font-size="16px" font-style="normal" font-weight="normal" text-decoration="normal" x="85" y="409" text-anchor="start" dominant-baseline="alphabetic" fill-opacity="1">D</text><path fill="rgb(77,77,255)" stroke="none" paint-order="stroke fill markers" d=" M 111.12516960172506 441.10621665143975 C 111.12516960172506 443.8676404005937 108.88659335087902 446.10621665143975 106.12516960172506 446.10621665143975 C 103.3637458525711 446.10621665143975 101.12516960172506 443.8676404005937 101.12516960172506 441.10621665143975 C 101.12516960172506 438.3447929022858 103.3637458525711 436.10621665143975 106.12516960172506 436.10621665143975 C 108.88659335087902 436.10621665143975 111.12516960172506 438.3447929022858 111.12516960172506 441.10621665143975 Z" fill-opacity="1"/><path fill="none" stroke="rgb(0,0,0)" paint-order="fill stroke markers" d=" M 111.12516960172506 441.10621665143975 C 111.12516960172506 443.8676404005937 108.88659335087902 446.10621665143975 106.12516960172506 446.10621665143975 C 103.3637458525711 446.10621665143975 101.12516960172506 443.8676404005937 101.12516960172506 441.10621665143975 C 101.12516960172506 438.3447929022858 103.3637458525711 436.10621665143975 106.12516960172506 436.10621665143975 C 108.88659335087902 436.10621665143975 111.12516960172506 438.3447929022858 111.12516960172506 441.10621665143975 Z" stroke-opacity="1" stroke-linecap="round" stroke-linejoin="round" stroke-miterlimit="10"/><text fill="rgb(77,77,255)" stroke="none" font-family="geogebra-sans-serif, sans-serif" font-size="16px" font-style="normal" font-weight="normal" text-decoration="normal" x="110" y="431" text-anchor="start" dominant-baseline="alphabetic" fill-opacity="1">E</text><path fill="rgb(77,77,255)" stroke="none" paint-order="stroke fill markers" d=" M 173.10359375312038 489.71674539763234 C 173.10359375312038 492.4781691467863 170.86501750227436 494.71674539763234 168.10359375312038 494.71674539763234 C 165.3421700039664 494.71674539763234 163.10359375312038 492.4781691467863 163.10359375312038 489.71674539763234 C 163.10359375312038 486.9553216484784 165.3421700039664 484.71674539763234 168.10359375312038 484.71674539763234 C 170.86501750227436 484.71674539763234 173.10359375312038 486.9553216484784 173.10359375312038 489.71674539763234 Z" fill-opacity="1"/><path fill="none" stroke="rgb(0,0,0)" paint-order="fill stroke markers" d=" M 173.10359375312038 489.71674539763234 C 173.10359375312038 492.4781691467863 170.86501750227436 494.71674539763234 168.10359375312038 494.71674539763234 C 165.3421700039664 494.71674539763234 163.10359375312038 492.4781691467863 163.10359375312038 489.71674539763234 C 163.10359375312038 486.9553216484784 165.3421700039664 484.71674539763234 168.10359375312038 484.71674539763234 C 170.86501750227436 484.71674539763234 173.10359375312038 486.9553216484784 173.10359375312038 489.71674539763234 Z" stroke-opacity="1" stroke-linecap="round" stroke-linejoin="round" stroke-miterlimit="10"/><text fill="rgb(77,77,255)" stroke="none" font-family="geogebra-sans-serif, sans-serif" font-size="16px" font-style="normal" font-weight="normal" text-decoration="normal" x="172" y="480" text-anchor="start" dominant-baseline="alphabetic" fill-opacity="1">F</text><path fill="rgb(77,77,255)" stroke="none" paint-order="stroke fill markers" d=" M 192.5478052515973 514.0220097707286 C 192.5478052515973 516.7834335198826 190.3092290007513 519.0220097707286 187.5478052515973 519.0220097707286 C 184.78638150244333 519.0220097707286 182.5478052515973 516.7834335198826 182.5478052515973 514.0220097707286 C 182.5478052515973 511.2605860215746 184.78638150244333 509.0220097707286 187.5478052515973 509.0220097707286 C 190.3092290007513 509.0220097707286 192.5478052515973 511.2605860215746 192.5478052515973 514.0220097707286 Z" fill-opacity="1"/><path fill="none" stroke="rgb(0,0,0)" paint-order="fill stroke markers" d=" M 192.5478052515973 514.0220097707286 C 192.5478052515973 516.7834335198826 190.3092290007513 519.0220097707286 187.5478052515973 519.0220097707286 C 184.78638150244333 519.0220097707286 182.5478052515973 516.7834335198826 182.5478052515973 514.0220097707286 C 182.5478052515973 511.2605860215746 184.78638150244333 509.0220097707286 187.5478052515973 509.0220097707286 C 190.3092290007513 509.0220097707286 192.5478052515973 511.2605860215746 192.5478052515973 514.0220097707286 Z" stroke-opacity="1" stroke-linecap="round" stroke-linejoin="round" stroke-miterlimit="10"/><text fill="rgb(77,77,255)" stroke="none" font-family="geogebra-sans-serif, sans-serif" font-size="16px" font-style="normal" font-weight="normal" text-decoration="normal" x="192" y="504" text-anchor="start" dominant-baseline="alphabetic" fill-opacity="1">G</text></g></svg>